REM DIRINDEX 1\2,1\3,1\4,1\5
REM DIRNAME "folder01","folder02","folder03","folder04","folder05"
TITLE ""
FILE "P1Q_t_1420-1429.mp3" MP3
  TRACK 01 AUDIO
    TITLE "3:cjc173_5234"
    INDEX 01 00:00:00
  TRACK 02 AUDIO
    TITLE "0:"
    INDEX 01 00:01:02
  TRACK 03 AUDIO
    TITLE "4:cjc173_5235"
    INDEX 01 00:01:22
  TRACK 04 AUDIO
    TITLE "0:"
    INDEX 01 00:03:13
  TRACK 05 AUDIO
    TITLE "5:cjc173_5236"
    INDEX 01 00:03:32
  TRACK 06 AUDIO
    TITLE "0:"
    INDEX 01 00:07:08
  TRACK 07 AUDIO
    TITLE "3:cjc173_5237"
    INDEX 01 00:07:53
  TRACK 08 AUDIO
    TITLE "0:"
    INDEX 01 00:08:57
  TRACK 09 AUDIO
    TITLE "4:cjc173_5238"
    INDEX 01 00:09:03
  TRACK 10 AUDIO
    TITLE "0:"
    INDEX 01 00:12:47
  TRACK 11 AUDIO
    TITLE "5:cjc173_5239"
    INDEX 01 00:12:66
  TRACK 12 AUDIO
    TITLE "0:"
    INDEX 01 00:17:38
  TRACK 13 AUDIO
    TITLE "3:cjc173_5240"
    INDEX 01 00:18:10
  TRACK 14 AUDIO
    TITLE "0:"
    INDEX 01 00:19:29
  TRACK 15 AUDIO
    TITLE "4:cjc173_5241"
    INDEX 01 00:19:51
  TRACK 16 AUDIO
    TITLE "0:"
    INDEX 01 00:24:15
  TRACK 17 AUDIO
    TITLE "5:cjc173_5242"
    INDEX 01 00:24:32
  TRACK 18 AUDIO
    TITLE "0:"
    INDEX 01 00:29:67
  TRACK 19 AUDIO
    TITLE "3:cjc173_5243"
    INDEX 01 00:30:37
  TRACK 20 AUDIO
    TITLE "0:"
    INDEX 01 00:31:54
  TRACK 21 AUDIO
    TITLE "4:cjc173_5244"
    INDEX 01 00:32:01
  TRACK 22 AUDIO
    TITLE "0:"
    INDEX 01 00:35:01
  TRACK 23 AUDIO
    TITLE "5:cjc173_5245"
    INDEX 01 00:35:20
  TRACK 24 AUDIO
    TITLE "0:"
    INDEX 01 00:40:20
  TRACK 25 AUDIO
    TITLE "3:cjc173_5246"
    INDEX 01 00:40:69
  TRACK 26 AUDIO
    TITLE "0:"
    INDEX 01 00:42:20
  TRACK 27 AUDIO
    TITLE "4:cjc173_5247"
    INDEX 01 00:42:40
  TRACK 28 AUDIO
    TITLE "0:"
    INDEX 01 00:45:05
  TRACK 29 AUDIO
    TITLE "5:cjc173_5248"
    INDEX 01 00:45:27
  TRACK 30 AUDIO
    TITLE "0:"
    INDEX 01 00:52:09
  TRACK 31 AUDIO
    TITLE "3:cjc173_5249"
    INDEX 01 00:52:54
  TRACK 32 AUDIO
    TITLE "0:"
    INDEX 01 00:53:65
  TRACK 33 AUDIO
    TITLE "4:cjc173_5250"
    INDEX 01 00:54:10
  TRACK 34 AUDIO
    TITLE "0:"
    INDEX 01 00:57:02
  TRACK 35 AUDIO
    TITLE "5:cjc173_5251"
    INDEX 01 00:57:22
  TRACK 36 AUDIO
    TITLE "0:"
    INDEX 01 01:01:06
  TRACK 37 AUDIO
    TITLE "3:cjc173_5252"
    INDEX 01 01:01:51
  TRACK 38 AUDIO
    TITLE "0:"
    INDEX 01 01:03:09
  TRACK 39 AUDIO
    TITLE "4:cjc173_5253"
    INDEX 01 01:03:30
  TRACK 40 AUDIO
    TITLE "0:"
    INDEX 01 01:08:16
  TRACK 41 AUDIO
    TITLE "5:cjc173_5254"
    INDEX 01 01:08:36
  TRACK 42 AUDIO
    TITLE "0:"
    INDEX 01 01:13:46
  TRACK 43 AUDIO
    TITLE "3:cjc173_5255"
    INDEX 01 01:14:17
  TRACK 44 AUDIO
    TITLE "0:"
    INDEX 01 01:15:24
  TRACK 45 AUDIO
    TITLE "4:cjc173_5256"
    INDEX 01 01:15:45
  TRACK 46 AUDIO
    TITLE "0:"
    INDEX 01 01:17:34
  TRACK 47 AUDIO
    TITLE "5:cjc173_5257"
    INDEX 01 01:17:54
  TRACK 48 AUDIO
    TITLE "0:"
    INDEX 01 01:22:14
  TRACK 49 AUDIO
    TITLE "3:cjc173_5258"
    INDEX 01 01:22:59
  TRACK 50 AUDIO
    TITLE "0:"
    INDEX 01 01:23:64
  TRACK 51 AUDIO
    TITLE "4:cjc173_5259"
    INDEX 01 01:24:09
  TRACK 52 AUDIO
    TITLE "0:"
    INDEX 01 01:27:35
  TRACK 53 AUDIO
    TITLE "5:cjc173_5260"
    INDEX 01 01:27:54
  TRACK 54 AUDIO
    TITLE "0:"
    INDEX 01 01:31:74
  TRACK 55 AUDIO
    TITLE "3:cjc173_5261"
    INDEX 01 01:32:44
  TRACK 56 AUDIO
    TITLE "0:"
    INDEX 01 01:33:45
  TRACK 57 AUDIO
    TITLE "4:cjc173_5262"
    INDEX 01 01:33:67
  TRACK 58 AUDIO
    TITLE "0:"
    INDEX 01 01:38:19
  TRACK 59 AUDIO
    TITLE "5:cjc173_5263"
    INDEX 01 01:38:43
  TRACK 60 AUDIO
    TITLE "0:"
    INDEX 01 01:43:08
